<svg xmlns="http://www.w3.org/2000/svg" viewBox="0 0 229.20154375 200.697714"
  style="max-height: 500px" width="229.20154375" height="200.697714">
  <path transform="translate(-96.64 -49.217)"
    d="M399.175 523.494c-2.933-.754-6.844-1.08-8.691-.725-2.024.39-4.613-.3-6.515-1.734-2.546-1.921-4.894-2.257-12.154-1.737-5.88.42-12.612-.16-19.424-1.676-10.184-2.266-21.064-3.311-37.216-3.577-4.4-.072-7.014-.382-5.809-.69 1.83-.465 1.955-1.184.758-4.355-1.13-2.995-2.51-3.97-6.525-4.612-2.8-.448-5.09-1.472-5.09-2.276 0-.894-1.296-1.137-3.334-.626-3.455.868-4.335-.345-1.968-2.712 1.453-1.453 2.92-7.169 1.839-7.169-.354 0-3.02 1.213-5.924 2.694-2.904 1.482-5.28 2.193-5.28 1.58 0-.612 2.1-2.115 4.667-3.338 2.566-1.224 4.666-2.836 4.666-3.58 0-.746.827-1.356 1.837-1.356s2.607-.927 3.547-2.06 2.495-1.76 3.454-1.392 2.088.113 2.508-.568 3.29-2.44 6.376-3.908c3.087-1.47 6.812-3.423 8.278-4.342 6.52-4.083 9.455-5.645 11.104-5.908.974-.156 3.83-1.26 6.348-2.455 5.598-2.656 7.215-1.823 7.215 3.716 0 2.343 1.2 8.455 2.667 13.584s2.666 10.977 2.666 12.996c0 3.894 1.275 4.371 10.106 3.786 5.008-.332 8.37 2.902 5.993 5.766-1.862 2.243.014 3.837 3.114 2.647 2.417-.927 2.757-2.644.768-3.873-.743-.46-2.617-3.316-4.163-6.346-2.511-4.922-2.713-6.843-1.891-18.034.506-6.888 1.22-13.307 1.587-14.264.719-1.873 9.597-3.45 10.569-1.878.323.522 1.786.636 3.252.253 2.305-.603 2.665-.04 2.665 4.17 0 4.986 3.58 13.149 10.662 24.317 2.203 3.474 4.005 7.717 4.005 9.43 0 4.02 3.127 5.147 9.53 3.438 4.035-1.077 5.45-.97 6.672.503 1.175 1.415 1.177 2.243.008 3.412-2.233 2.234-1.897 3.677.857 3.677 5.683 0 5.574-2.878-.388-10.197-6.733-8.265-9.503-16.451-10.79-31.878l-.895-10.734 5.17-1.53c2.843-.842 8.58-1.661 12.748-1.82 6.944-.266 7.647-.578 8.397-3.732.45-1.893 1.131-4.497 1.514-5.786.62-2.083.156-2.024-4.174.531-4.454 2.628-6.09 2.804-19.093 2.056-15.058-.866-36.81-5.661-44.394-9.786-3.718-2.022-7.146-2.4-19.829-2.185-12.218.207-16.004-.18-18.638-1.904-1.818-1.19-5.118-2.548-7.334-3.019-3.85-.817-4.013-1.131-3.704-7.102l.323-6.247h-5.99c-7.396 0-7.487-.853-1.419-13.323 2.515-5.166 5.306-11.632 6.203-14.369 3.972-12.118 16.53-38.793 20.612-43.783 2.463-3.01 6-8.71 7.86-12.667 1.86-3.955 5.506-10.792 8.103-15.192 2.84-4.814 4.513-9.208 4.198-11.033-.288-1.669.23-3.469 1.15-4s1.89-2.105 2.154-3.495c.324-1.697 2.511-3.12 6.647-4.325 5.288-1.54 6.284-2.39 7-5.971 1.83-9.145 3.492-8.436-27.498-11.73-43.874-4.662-44.954-5.66-8.667-8.008 30.553-1.976 42.439-3.45 43.652-5.413.638-1.032 4.137-.892 12.122.483 6.175 1.063 14.826 2.315 19.226 2.782 12.296 1.305 26 4.8 26 6.63 0 .898 1.95 2.286 4.334 3.083 25.965 8.69 46.724 16.28 49.504 18.102 4.56 2.988 3.304 5.404-3.994 7.68l-6.036 1.882 10.258 8.294c11.039 8.924 10.825 8.895 18.449 2.53l3.848-3.213-5.468-3.618c-5.52-3.653-12.228-11.28-12.228-13.904 0-.782 1.5-1.422 3.333-1.422 2.411 0 3.334.716 3.334 2.588 0 3.508 2.73 4.966 4.242 2.266 1.84-3.288 3.332-2.648 4.224 1.812 1.205 6.024 12.378 12.027 14.873 7.99.457-.739-.107-2.282-1.254-3.428-2.889-2.889-2.62-3.413 1.248-2.443 2.52.633 3.333.314 3.333-1.307 0-2.523 3.49-2.9 4.413-.478.35.916 1.082-.916 1.627-4.073.614-3.558 1.587-5.511 2.558-5.138 2.362.906 8.351-4.046 6.736-5.57-1.96-1.847-15.466-3.824-19.334-2.829-1.833.472-4.383.33-5.666-.313-1.917-.962-2.334-.567-2.334 2.21 0 4.071-1.43 4.29-4.666.713-1.328-1.467-3.07-2.648-3.874-2.625-.803.024-.41.84.874 1.814 4.734 3.594 1.47 6.705-5.56 5.299-3.08-.616-4.03-1.664-4.688-5.169-1.028-5.476.385-14.83 2.505-16.59 3.318-2.753 24.252-6.71 35.546-6.72 9.803-.008 12.127.439 16 3.076 4.297 2.927 4.522 3.474 4.377 10.64-.126 6.225-.713 8.021-3.333 10.204-1.75 1.457-3.67 2.669-4.27 2.693-2.974.121-10.244 7.293-10.244 10.106 0 1.856-1.637 4.36-4.124 6.306l-4.124 3.228 2.972 6.91c1.635 3.8 2.67 7.21 2.302 7.58-.37.369-2.533-1.45-4.808-4.04-2.275-2.592-5.355-4.712-6.844-4.712-3.88 0-3.367 1.638 2.06 6.576 2.622 2.386 5.84 6.84 7.151 9.9 1.311 3.059 3.406 6.41 4.654 7.445 4.797 3.981 6.59 9.808 6.795 22.079.11 6.6.448 12.9.75 14 .453 1.647-.81 1.917-7.154 1.533-5.078-.307-8.434.141-9.85 1.315-1.842 1.53-2.45 1.33-4.296-1.412-1.183-1.757-3.13-5.649-4.329-8.649l-2.178-5.454-3.783 7.701c-3.21 6.534-4.546 7.93-8.813 9.209-3.987 1.194-4.72 1.877-3.541 3.298 1.07 1.29 5.365 1.792 15.323 1.792h13.837v7.046c0 6.444-.348 7.251-4.077 9.454l-4.076 2.408-6.924-5.55c-3.807-3.052-9.773-7.662-13.256-10.245-4.485-3.326-6.334-5.628-6.334-7.889 0-2.502.639-3.124 2.952-2.875 2.447.263 3.477-.986 6.015-7.298 4.095-10.183 6.66-21.067 7.63-32.384.72-8.401.615-9.014-1.053-6.13-1.02 1.76-1.54 4.405-1.156 5.874.472 1.805.197 2.362-.847 1.717-1.874-1.158-4.481 4.94-3.36 7.86.476 1.243.007 2.012-1.229 2.012-2.369 0-4.06 3.57-2.227 4.703 1.91 1.18 1.536 3.297-.582 3.297-2.497 0-3.632 3.31-1.772 5.17 1.106 1.106.867 1.497-.915 1.497-1.906 0-2.236.698-1.575 3.333.623 2.482.309 3.333-1.23 3.333-1.137 0-2.453-1.004-2.924-2.231-1.276-3.326-10.774-12.435-12.965-12.435-2.468 0-6.095 3.644-6.095 6.124 0 1.063 1.434 2.586 3.186 3.385 2.933 1.336 6.147 6.163 6.147 9.23 0 1.366-15.888.61-24-1.143-4.333-.936-4.753-1.481-5.886-7.636-1.024-5.558-2.099-7.28-6.667-10.672-4.107-3.05-5.55-5.109-5.867-8.369-.599-6.158 2.977-10.98 18.975-25.586 7.63-6.967 13.927-13.025 13.993-13.463.065-.438-6.336-1.166-14.225-1.617-8.916-.51-18.503-2.025-25.333-4.004-8.236-2.385-10.99-2.75-10.99-1.458 0 1.77-4.98 5.875-7.126 5.875-.66 0-.415-.945.544-2.101 1.446-1.742 1.417-2.31-.17-3.313-1.99-1.26-.904-1.727 3.075-1.324 1.693.172 2.083-.392 1.436-2.078-.682-1.776-.37-2.114 1.343-1.457 1.725.662 2.232.089 2.232-2.523 0-1.858.62-4.54 1.38-5.958 1.666-3.113-.3-3.47-3.19-.579-2.813 2.813-6.313 2.486-7.137-.667-.448-1.711-1.819-2.666-3.828-2.666-1.767 0-3.753 1.162-4.559 2.666-1.72 3.215-4 3.5-4 .5 0-1.702-.868-1.993-4.05-1.356-2.906.58-4.266.251-4.81-1.167-.417-1.087-1.294-1.977-1.949-1.977-2.16 0-1.24 3.952 1.58 6.77 3.787 3.787 2.37 6.35-4.082 7.382-8.067 1.29-8.087 2.062-.235 9.182 4.21 3.817 4.494 3.887 6.23 1.525 1.747-2.379 2.055-2.385 7.864-.167 3.325 1.27 6.398 3.418 6.828 4.774s2.165 3.553 3.856 4.882c3.995 3.143 6.292 7.808 10.66 21.652 3.129 9.914 6.621 18.253 13.588 32.442 1.02 2.076 1.854 4.926 1.854 6.333 0 3.437-3.502 3.273-4.412-.206-1.112-4.253-7.517-2.963-10.414 2.098-2.252 3.934-2.215 4.15 2.268 13.143 2.507 5.028 4.558 9.335 4.558 9.571s-.972 1.4-2.159 2.588c-2.654 2.654-1.76 3.695 3.353 3.901 2.455.1 10.59 4.402 21.7 11.478l17.772 11.319-8.444.672c-8.8.7-12.222 3.01-12.222 8.25 0 1.326-1.249 3.66-2.775 5.186-2.604 2.604-2.877 2.632-4.464.463-2.123-2.904-4.745-1.462-3.814 2.097.912 3.486 4.839 3.396 9.733-.222 3.852-2.848 4.203-2.866 26.066-1.305 24.631 1.758 23.784 1.479 43.254 14.233 6.966 4.564 15.753 9.901 19.524 11.86 5.027 2.612 6.698 4.179 6.256 5.868-.47 1.8.8 2.675 5.809 4.002 3.526.934 10.735 3.827 16.02 6.428 11.999 5.905 15.557 5.16 5.666-1.186-4.065-2.608-8.119-5.619-9.008-6.69-.94-1.132-2.973-1.69-4.85-1.332-2.098.401-4.787-.545-7.659-2.694-2.434-1.823-8.925-5.617-14.425-8.432s-14.223-7.836-19.385-11.158-10.322-6.64-11.468-7.373c-1.145-.734-4.543-3.134-7.55-5.334-3.008-2.2-10.308-6.944-16.223-10.542-8.638-5.255-10.6-7.03-9.967-9.024.566-1.78-.934-4.156-5.31-8.408-3.353-3.26-6.097-6.768-6.097-7.796s-1.228-3.432-2.73-5.34c-3.338-4.244-5.653-17.043-3.91-21.624 1.125-2.96 1.96-3.258 8.94-3.18 9.88.11 21.522 2.604 26.054 5.581 1.954 1.283 4.04 2.333 4.635 2.333s5.266 3.34 10.38 7.421 11.248 8.63 13.631 10.109c4.602 2.855 5.64 5.137 2.333 5.137-4.292 0-1.436 4.571 3.632 5.811 3.004.735 3.486.512 2.793-1.294-.728-1.897-.346-1.86 2.925.283l3.763 2.465-3.223.78c-5.205 1.258-11.096-.504-12.54-3.75-1.153-2.598-2.327-2.962-9.543-2.962h-8.229l2.357 7.784c1.296 4.281 3.141 11.731 4.1 16.556l1.744 8.772 6.11 1.574c3.362.866 6.887 1.807 7.835 2.091 1.287.386 1.503-.656.853-4.12-1.427-7.61-.282-8.954 5.554-6.516 2.794 1.167 6.361 1.69 8.266 1.212 4.185-1.05 6.36 1.792 3.174 4.148-3.269 2.415-.24 5.308 3.475 3.32 2.882-1.542 9.953 1.064 11.938 4.4 1.182 1.986 11.016 1.253 11.016-.821 0-.72-4.95-6.002-11-11.739-6.05-5.736-10.656-10.775-10.236-11.197.42-.423 1.92.285 3.333 1.573s4.145 3.531 6.07 4.986c2.902 2.193 30.804 23.835 38.234 29.656 1.895 1.486 1.387 2.445-4.412 8.333-6.568 6.669-6.392 8.642.392 4.382 10.263-6.446 16.427-16.15 9.087-14.308-2.605.654-4.92-.764-12.472-7.642-5.109-4.652-8.987-9.218-8.636-10.168.35-.948.903-1.458 1.228-1.132 1.144 1.143 10.223-2.088 15.29-5.442l5.122-3.39v-93.889l26.215-.878c43.689-1.463 77.475-1.126 78.656.785.565.915 1.176 23.265 1.357 49.667s.684 51.453 1.117 55.67l.788 7.667-20.4-.004-20.4-.004v-8.554c0-6.806-.619-9.391-3.03-12.651-1.667-2.254-3.404-6.053-3.86-8.443-.952-4.997-5.098-13.77-7.09-15-.744-.459-1.353-2.766-1.353-5.126s-.813-5.475-1.807-6.922c-.993-1.446-1.91-6.126-2.037-10.4-.238-8.028-2.987-14.23-6.309-14.23-1.282 0-1.006.84.9 2.748 3.62 3.62 3.119 10.061-.747 9.603-7.873-.932-12.778-2.12-13.485-3.263-.963-1.559 4.608-7.754 6.973-7.754.928 0 2.116-.691 2.638-1.536.702-1.136-1.657-1.3-9.067-.628-5.978.542-11.57.352-13.87-.472l-3.855-1.379 3 2.554c3.806 3.242 3.764 4.278-.334 8.127-4.23 3.975-4.192 7.398.21 18.4 3.48 8.7 3.503 8.961 1.333 15.073-1.604 4.515-2.21 10.754-2.21 22.773 0 10.378-.553 17.108-1.483 18.038-2.327 2.327-.113 4.383 4.721 4.383 4.065 0 4.48-.396 5.24-5 .455-2.75.833-8.15.841-12s.615-7 1.348-7c.754 0 1.334 3.81 1.334 8.764 0 7.533.318 8.704 2.267 8.328 1.555-.3 2.868-2.95 4.175-8.43 2.695-11.302 3.31-12.633 3.892-8.41.272 1.972-.742 7.737-2.254 12.81-1.51 5.074-2.747 9.91-2.747 10.748 0 .916 2.391 1.523 6 1.523 5.655 0 6-.21 6.008-3.666.008-4.198 2.073-12.071 3.924-14.962 2.236-3.49 2.666-.746.733 4.68-3.793 10.65-2.46 11.49 7.696 4.847 5.62-3.677 8.392-3.015 3.606.86-4.537 3.674-2.72 6.908 3.882 6.908 6.831 0 9.496 1.086 8.572 3.493-1.158 3.019-8.062 6.003-14.08 6.086-3.005.041-7.011.753-8.902 1.581-4.59 2.011-12.106 7.714-12.106 9.186 0 1.72-2.815 4.123-7 5.974-2.016.893-3.666 2.576-3.666 3.741 0 1.408-.783 1.873-2.334 1.387-1.283-.403-5.538.117-9.455 1.155-3.917 1.037-8.036 1.536-9.153 1.107-1.583-.607-1.828-.137-1.11 2.125.703 2.217-.052 3.815-3.185 6.741-3.545 3.312-4.269 3.547-5.292 1.717-1.068-1.907-1.501-1.917-4.329-.092-5.01 3.233-8.926 3.991-23.682 4.588-7.63.308-14.681 1.231-15.67 2.051-2.055 1.706-8.888 2.578-22.896 2.92-7.204.177-10.183.8-11.333 2.368-.859 1.171-3.481 3.121-5.828 4.334s-4.886 3.255-5.643 4.538c-1.114 1.89-1.6 1.99-2.563.529-.917-1.393-1.822-1.465-3.97-.315-3.146 1.683-17.194.569-19.916-1.58-1.176-.929-2.405-.69-4.034.785-1.924 1.741-4.716 2.003-15.641 1.469-7.315-.358-13.9-.67-14.633-.692-.733-.023-9.433.282-19.333.678-10.54.42-20.21.15-23.334-.652m27.18-122.376c-1.749-1.369-7.68-5.43-13.18-9.025-12.799-8.367-18.666-12.746-18.666-13.932 0-.518 1.49-2.355 3.31-4.082 5.918-5.614 3.872-8.694-2.464-3.71-1.991 1.566-5.97 2.932-9.18 3.152-3.116.214-7.316.835-9.333 1.38-3.376.915-3.667.691-3.672-2.818-.007-5.604-4.654-12.643-7.625-11.55-4.4 1.62-8.37 4.702-8.37 6.496 0 3.98 3.327 8.594 9.166 12.714 3.392 2.394 8.139 6.042 10.548 8.107 4.88 4.185 7.216 4.635 9.936 1.916 1.011-1.012 4.204-2.225 7.095-2.697 4.142-.675 6.244-.226 9.922 2.118 18.34 11.69 30.322 18.04 22.513 11.93m102.376 12.265c-1.557-1.556-.965-2.78 1.68-3.472 2.583-.675 4.497-5.682 6.104-15.972.746-4.772 1.015-5 5.887-5 5.905 0 15.618 3.144 18.908 6.121 2.885 2.611 4.137 7.254 2.095 7.77-.86.217-6.063 1.443-11.563 2.724s-12.507 3.767-15.57 5.524c-6.166 3.535-6.277 3.569-7.541 2.305m87.544-10.655c.483-.483.21-1.683-.608-2.667-1.175-1.416-.782-1.789 1.887-1.789 2.715 0 3.236.52 2.674 2.667-.383 1.466-1.627 2.666-2.764 2.666s-1.672-.394-1.189-.877m-2.766-8.1c-.917-.318-1.667-1.771-1.667-3.229 0-2.416.187-2.464 2.107-.544 2.368 2.368 2.101 4.654-.44 3.773m7.972-.606c.29-.87 1.324-1.849 2.297-2.173s1.412-.012.975.694c-.436.707.054 1.285 1.09 1.285 1.035 0 1.573-.5 1.195-1.112-.378-.61-.051-1.11.725-1.11.777 0 1.412.9 1.412 2 0 1.345-1.345 2-4.11 2-2.582 0-3.915-.59-3.584-1.584m-101.342-99.159c-4.545-3.183-3.536-4.373 2.37-2.797 2.933.783 5.333 2.2 5.333 3.148 0 2.357-4.104 2.17-7.703-.35m-93.63-23.432c-3.3-.567-15.6-2.633-27.334-4.591s-21.522-3.727-21.754-3.93c-1.14-.999 8.112-16.702 11.541-19.587 5.846-4.92 21.469-7.234 29.558-4.38 7.515 2.651 12.963 7.826 14.656 13.92 1.55 5.579 1.773 18.362.333 19.092-.55.28-3.7.044-7-.524m71.745-8.098c-.38-3.987.103-6.243 1.673-7.813 2.528-2.527 19.035-6.581 26.798-6.581 9.347 0 18.45 6.621 18.45 13.42 0 .697-6.413 1.246-14.547 1.246-10.792 0-16.73.684-23 2.65-4.65 1.457-8.54 2.657-8.646 2.666-.106.01-.434-2.505-.728-5.588M255.842 247.41c-14.059-2.132-14.425-2.278-20.422-8.163-9.76-9.58-11.48-22.526-3.991-30.015l3.41-3.41 6.168 11.856c5.477 10.526 6.874 12.214 12.461 15.051 8.699 4.418 16.69 5.062 27.264 2.2 8.252-2.234 8.91-2.704 11.28-8.065 4.953-11.195.707-14.664-24.257-19.824-8.029-1.66-16.264-4.257-19.149-6.04-4.74-2.93-5.017-3.456-4.366-8.312.382-2.85 1.645-6.51 2.806-8.132 1.161-1.623 3.081-4.29 4.268-5.927 2.065-2.85 2.001-3.035-1.499-4.366-5.773-2.195-11.221-6.562-15.425-12.365-3.193-4.408-3.879-6.683-3.868-12.825.035-20.25 15.764-33.467 39.83-33.467 6.82 0 13.124.908 18.283 2.634 5.758 1.926 11.547 2.643 21.54 2.667l13.667.033v10.301l-8.741.702c-4.808.386-9.057 1.017-9.442 1.402s-.05 1.912.742 3.393c3.333 6.228.622 22.426-4.765 28.472-3.036 3.407-18.22 10.396-22.585 10.396-4.875 0-4.503-7.454.614-12.283 7.947-7.5 7.405-28.836-.917-36.093-1.232-1.074-4.517-2.36-7.3-2.86-4.544-.815-5.521-.448-9.548 3.578-8.95 8.951-9.564 26.437-1.249 35.64 4.412 4.884 4.441 5.002 3.163 12.807-1.995 12.182-1.907 12.545 3.028 12.545 5.646 0 23.089 3.354 30.217 5.81 7.515 2.59 15.39 8.202 17.258 12.3 3.964 8.7.35 20.297-8.674 27.84-13.221 11.052-30.626 15.427-49.8 12.52m-108.379-70.517c-10.06-1.568-17.858-5.108-27.357-12.417-9.349-7.194-13.409-12.879-19.19-26.87-3.996-9.67-4.393-11.849-4.253-23.333.27-22.227 6.02-36.54 19.736-49.12 16.539-15.167 45.532-19.892 76.776-12.511l10 2.362V86.94l-6.447-.226c-3.547-.124-6.664-.441-6.928-.705-.263-.264-1.143-4.662-1.953-9.774-.811-5.113-2.365-10.195-3.454-11.295-1.535-1.552-5.484-2-17.598-2-14.624 0-16.016.232-21.833 3.652-6.754 3.97-15.215 15.271-19.152 25.579-3.114 8.153-2.097 29.74 2.014 42.769 2.461 7.801 4.181 10.545 10.481 16.716 8.837 8.657 18.38 12.367 32.204 12.52l8.666.097.374-17.816c.243-11.635-.141-18.434-1.109-19.6-.815-.982-4.583-1.965-8.373-2.185l-6.892-.399v-9.333l26.512-.422c14.582-.232 27.016.083 27.632.699s.646 2.906.067 5.088c-.89 3.355-1.797 4.031-5.864 4.376-7.888.668-8.365 2.16-8.194 25.644l.152 20.974-4.819 1.496c-13.473 4.183-38.044 6.15-51.198 4.098"
    style="fill:#000;stroke-width:1.33333" />
  <path transform="translate(-96.64 -49.217)"
    d="M597.217 339.985c.72-.754 1.246-1.66 1.931-2.442.62-.708-.146.202.454-.398.446-.446.03-.133.398-.454.091-.08.198-.142.284-.228.301-.3.55-.664.852-.965.105-.105.232-.184.34-.284.297-.271.557-.58.853-.852a41 41 0 0 1 2.044-1.76c.711-.57 1.479-1.059 2.215-1.591.787-.568 1.515-1.212 2.272-1.817.694-.556.203-.14.91-.625.36-.249.515-.429.908-.625.182-.091.383-.14.568-.227.367-.174.715-.386 1.079-.568l3.408-1.704c.438-.22.952-.408 1.363-.682.107-.07.16-.17.284-.227 1.879-.854 3.814-1.576 5.736-2.328l.682-.284c.227-.076.458-.14.681-.228.77-.3.5-.287 1.307-.568.204-.07.42-.102.624-.17.628-.21 1.249-.464 1.875-.682.875-.304 1.75-.642 2.67-.795.68-.113 1.412-.192 2.1-.227.19-.009.38.018.569 0 .21-.02.414-.09.624-.113 1.1-.228.58-.026 1.08-.057.756-.048 1.514-.138 2.271-.17 2.705-.118 5.426.155 8.122.283 1.37.065 2.732-.152 4.09-.284 1.038-.1 2.027-.113 3.067-.113.843 0 1.664-.012 2.499.113.55.083 1.106.157 1.647.284q.228.055.454.114c.19.057.376.124.568.17.206.05.418.069.625.114.688.15 1.372.363 2.045.568.773.235 1.494.57 2.272.795 1.706.495 3.436.94 5.111 1.533 1.018.362 2 .814 3.01 1.193.118.044 1.005.332 1.193.398.468.165.941.383 1.42.511.13.034.267.027.398.057.4.092.788.26 1.192.34 2.11.422 4.258.852 6.305 1.534.903.301 1.79.722 2.67 1.08.377.153.766.28 1.135.454.69.324 1.352.704 2.045 1.022 1.085.497 2.198.94 3.237 1.533.9.515 1.726 1.116 2.613 1.648.602.361.085-.04.682.397.174.128.335.272.51.398.279.198.586.35.853.568.126.103.444.398.624.51.072.046.16.064.228.114.958.72.134.148.624.568.296.254.61.49.91.739.377.314.695.716 1.078 1.022.252.201.493.414.739.625.352.302.633.655.908 1.022.099.132.268.25.341.398.056.112.09.221.17.34.088.131.033-.024.17.114.014.014-.007.04 0 .057.12.236-.003-.06.114.057.014.013-.013.043 0 .057.033.032.195.08.228.113.013.014-.008.04 0 .057.039.078.133.076.17.114.036.035-.002.11.057.17"
    style="fill:#000" />
</svg>